<svg width="18" height="14" viewBox="0 0 18 14" fill="none" xmlns="http://www.w3.org/2000/svg">
<path d="M10.4352 4.00934C13.0498 4.00934 14.5326 5.67895 14.7479 7.69438H14.8137C16.496 7.69438 17.86 9.00652 17.86 10.6252C17.86 12.2439 16.496 13.5561 14.8137 13.5561H6.0566C4.37434 13.5561 3.01028 12.2439 3.01028 10.6252C3.01028 9.00652 4.37434 7.69438 6.0566 7.69438H6.12236C6.33981 5.66516 7.82054 4.00934 10.4352 4.00934ZM7.66886 0.827095C9.21323 0.827095 10.5603 1.70539 11.2254 2.99632C10.9632 2.96418 10.6993 2.94824 10.4352 2.94859C7.90009 2.94859 6.05236 4.33499 5.3926 6.43421L5.32684 6.66121L5.27805 6.85957L5.10303 6.89139C4.46249 7.02187 3.86419 7.30887 3.36152 7.72679C2.85885 8.14472 2.46743 8.68058 2.22218 9.28656C1.71688 8.97868 1.32293 8.51766 1.09761 7.97051C0.872283 7.42336 0.827329 6.81861 0.969279 6.24416C1.11123 5.6697 1.43268 5.1555 1.88691 4.77629C2.34115 4.39708 2.90448 4.17263 3.49502 4.13557L3.73049 4.13026C3.89405 3.20458 4.37847 2.3661 5.09868 1.76205C5.8189 1.15799 6.72888 0.826967 7.66886 0.827095Z" fill="white"/>
</svg>
