<svg width="17" height="17" viewBox="0 0 17 17" fill="none" xmlns="http://www.w3.org/2000/svg">
<path d="M0.953369 8.92106C0.953369 6.73957 1.73656 4.87167 3.30295 3.31736C4.86934 1.76306 6.75176 0.985901 8.9502 0.985901C11.1212 0.985901 12.983 1.76306 14.5356 3.31736C16.0883 4.87167 16.8646 6.73957 16.8646 8.92106C16.8646 11.1025 16.0883 12.9773 14.5356 14.5452C12.983 16.1131 11.1212 16.8971 8.9502 16.8971C6.77924 16.8971 4.90369 16.1131 3.32356 14.5452C1.74343 12.9773 0.953369 11.1025 0.953369 8.92106ZM4.82812 8.92106C4.82812 10.0663 5.22659 11.0344 6.02352 11.8252C6.84794 12.6432 7.8235 13.0522 8.9502 13.0522C10.0769 13.0522 11.0525 12.6432 11.8769 11.8252C12.7013 11.0071 13.1135 10.0391 13.1135 8.92106C13.1135 7.80304 12.7013 6.84183 11.8769 6.0374C11.0525 5.23298 10.0769 4.83077 8.9502 4.83077C7.79602 4.83077 6.82046 5.22616 6.02352 6.01695C5.22659 6.80774 4.82812 7.77578 4.82812 8.92106Z" fill="#EFAA82"/>
</svg>
