<svg width="77" height="78" viewBox="0 0 77 78" fill="none" xmlns="http://www.w3.org/2000/svg">
<path d="M38.262 0.897095C39.0216 0.897095 39.75 1.19884 40.2872 1.73595C40.8243 2.27305 41.126 3.00153 41.126 3.76111V9.48915C41.126 10.2487 40.8243 10.9772 40.2872 11.5143C39.75 12.0514 39.0216 12.3532 38.262 12.3532C37.5024 12.3532 36.7739 12.0514 36.2368 11.5143C35.6997 10.9772 35.398 10.2487 35.398 9.48915V3.76111C35.398 3.00153 35.6997 2.27305 36.2368 1.73595C36.7739 1.19884 37.5024 0.897095 38.262 0.897095ZM57.3554 39.084C57.3554 44.1479 55.3438 49.0044 51.7631 52.5851C48.1824 56.1658 43.3259 58.1775 38.262 58.1775C33.1981 58.1775 28.3416 56.1658 24.7609 52.5851C21.1802 49.0044 19.1685 44.1479 19.1685 39.084C19.1685 34.0201 21.1802 29.1636 24.7609 25.5829C28.3416 22.0022 33.1981 19.9906 38.262 19.9906C43.3259 19.9906 48.1824 22.0022 51.7631 25.5829C55.3438 29.1636 57.3554 34.0201 57.3554 39.084ZM73.5849 41.948C74.3445 41.948 75.0729 41.6463 75.61 41.1092C76.1472 40.5721 76.4489 39.8436 76.4489 39.084C76.4489 38.3244 76.1472 37.596 75.61 37.0588C75.0729 36.5217 74.3445 36.22 73.5849 36.22H67.8568C67.0973 36.22 66.3688 36.5217 65.8317 37.0588C65.2946 37.596 64.9928 38.3244 64.9928 39.084C64.9928 39.8436 65.2946 40.5721 65.8317 41.1092C66.3688 41.6463 67.0973 41.948 67.8568 41.948H73.5849ZM38.262 65.8148C39.0216 65.8148 39.75 66.1166 40.2872 66.6537C40.8243 67.1908 41.126 67.9193 41.126 68.6789V74.4069C41.126 75.1665 40.8243 75.895 40.2872 76.4321C39.75 76.9692 39.0216 77.2709 38.262 77.2709C37.5024 77.2709 36.7739 76.9692 36.2368 76.4321C35.6997 75.895 35.398 75.1665 35.398 74.4069V68.6789C35.398 67.9193 35.6997 67.1908 36.2368 66.6537C36.7739 66.1166 37.5024 65.8148 38.262 65.8148ZM8.66713 41.948C9.42671 41.948 10.1552 41.6463 10.6923 41.1092C11.2294 40.5721 11.5311 39.8436 11.5311 39.084C11.5311 38.3244 11.2294 37.596 10.6923 37.0588C10.1552 36.5217 9.42671 36.22 8.66713 36.22H2.93909C2.17951 36.22 1.45103 36.5217 0.913924 37.0588C0.376817 37.596 0.0750732 38.3244 0.0750732 39.084C0.0750732 39.8436 0.376817 40.5721 0.913924 41.1092C1.45103 41.6463 2.17951 41.948 2.93909 41.948H8.66713ZM8.55257 9.37459C9.08957 8.83825 9.81751 8.537 10.5765 8.537C11.3354 8.537 12.0634 8.83825 12.6004 9.37459L18.3284 15.1026C18.8343 15.6455 19.1097 16.3636 19.0966 17.1056C19.0836 17.8476 18.783 18.5555 18.2582 19.0803C17.7335 19.605 17.0256 19.9056 16.2836 19.9187C15.5416 19.9318 14.8235 19.6563 14.2806 19.1504L8.55257 13.4224C8.01623 12.8854 7.71498 12.1575 7.71498 11.3985C7.71498 10.6395 8.01623 9.91159 8.55257 9.37459ZM12.6004 68.7934C12.3382 69.0748 12.022 69.3005 11.6707 69.457C11.3194 69.6136 10.9401 69.6977 10.5556 69.7045C10.171 69.7113 9.78902 69.6406 9.4324 69.4965C9.07578 69.3525 8.75183 69.1381 8.47987 68.8661C8.2079 68.5942 7.9935 68.2702 7.84946 67.9136C7.70541 67.557 7.63468 67.175 7.64146 66.7904C7.64824 66.4059 7.73242 66.0266 7.88895 65.6753C8.04549 65.324 8.27118 65.0078 8.55257 64.7456L14.2806 59.0176C14.5428 58.7362 14.859 58.5105 15.2103 58.354C15.5616 58.1974 15.9409 58.1133 16.3254 58.1065C16.71 58.0997 17.092 58.1704 17.4486 58.3145C17.8052 58.4585 18.1292 58.6729 18.4011 58.9449C18.6731 59.2168 18.8875 59.5408 19.0315 59.8974C19.1756 60.254 19.2463 60.636 19.2395 61.0206C19.2327 61.4051 19.1486 61.7844 18.992 62.1357C18.8355 62.487 18.6098 62.8032 18.3284 63.0654L12.6004 68.7934ZM67.9714 9.37459C67.4344 8.83825 66.7065 8.537 65.9475 8.537C65.1885 8.537 64.4606 8.83825 63.9236 9.37459L58.1956 15.1026C57.6897 15.6455 57.4142 16.3636 57.4273 17.1056C57.4404 17.8476 57.741 18.5555 58.2657 19.0803C58.7905 19.605 59.4984 19.9056 60.2404 19.9187C60.9824 19.9318 61.7004 19.6563 62.2434 19.1504L67.9714 13.4224C68.5077 12.8854 68.809 12.1575 68.809 11.3985C68.809 10.6395 68.5077 9.91159 67.9714 9.37459ZM63.9236 68.7934C64.1858 69.0748 64.502 69.3005 64.8533 69.457C65.2046 69.6136 65.5839 69.6977 65.9684 69.7045C66.353 69.7113 66.7349 69.6406 67.0916 69.4965C67.4482 69.3525 67.7721 69.1381 68.0441 68.8661C68.3161 68.5942 68.5305 68.2702 68.6745 67.9136C68.8186 67.557 68.8893 67.175 68.8825 66.7904C68.8757 66.4059 68.7916 66.0266 68.635 65.6753C68.4785 65.324 68.2528 65.0078 67.9714 64.7456L62.2434 59.0176C61.9812 58.7362 61.665 58.5105 61.3137 58.354C60.9623 58.1974 60.5831 58.1133 60.1985 58.1065C59.814 58.0997 59.432 58.1704 59.0754 58.3145C58.7188 58.4585 58.3948 58.6729 58.1229 58.9449C57.8509 59.2168 57.6365 59.5408 57.4924 59.8974C57.3484 60.254 57.2777 60.636 57.2845 61.0206C57.2912 61.4051 57.3754 61.7844 57.5319 62.1357C57.6885 62.487 57.9142 62.8032 58.1956 63.0654L63.9236 68.7934Z" fill="#EFAA82"/>
</svg>
